<svg width="192" height="192" viewBox="0 0 192 192" fill="none" xmlns="http://www.w3.org/2000/svg">
  <!-- Background circle -->
  <circle cx="96" cy="96" r="96" fill="#1976d2"/>
  
  <!-- Dollar sign -->
  <path d="M96 40 L96 152 M76 60 Q76 52 84 52 L108 52 Q116 52 116 60 Q116 68 108 68 L84 68 Q76 68 76 76 Q76 84 84 84 L108 84 Q116 84 116 92 Q116 100 108 100 L84 100 Q76 100 76 108 Q76 116 84 116 L108 116 Q116 116 116 124 Q116 132 108 132 L84 132 Q76 132 76 124" stroke="white" stroke-width="8" fill="none" stroke-linecap="round"/>
  
  <!-- Chart bars -->
  <rect x="130" y="120" width="8" height="32" fill="white" rx="4"/>
  <rect x="142" y="110" width="8" height="42" fill="white" rx="4"/>
  <rect x="154" y="100" width="8" height="52" fill="white" rx="4"/>
  
  <!-- Coins -->
  <circle cx="140" cy="70" r="12" fill="gold" stroke="white" stroke-width="2"/>
  <circle cx="156" cy="78" r="12" fill="gold" stroke="white" stroke-width="2"/>
</svg>
