<svg width="512" height="512" viewBox="0 0 512 512" fill="none" xmlns="http://www.w3.org/2000/svg">
  <!-- Background circle -->
  <circle cx="256" cy="256" r="256" fill="#1976d2"/>
  
  <!-- Dollar sign -->
  <path d="M256 100 L256 412 M200 160 Q200 140 220 140 L292 140 Q312 140 312 160 Q312 180 292 180 L220 180 Q200 180 200 200 Q200 220 220 220 L292 220 Q312 220 312 240 Q312 260 292 260 L220 260 Q200 260 200 280 Q200 300 220 300 L292 300 Q312 300 312 320 Q312 340 292 340 L220 340 Q200 340 200 320" stroke="white" stroke-width="20" fill="none" stroke-linecap="round"/>
  
  <!-- Chart bars -->
  <rect x="350" y="320" width="20" height="80" fill="white" rx="10"/>
  <rect x="380" y="290" width="20" height="110" fill="white" rx="10"/>
  <rect x="410" y="260" width="20" height="140" fill="white" rx="10"/>
  <rect x="440" y="230" width="20" height="170" fill="white" rx="10"/>
  
  <!-- Coins -->
  <circle cx="370" cy="180" r="32" fill="gold" stroke="white" stroke-width="4"/>
  <circle cx="420" cy="200" r="32" fill="gold" stroke="white" stroke-width="4"/>
  
  <!-- Wealth symbols -->
  <path d="M80 200 L120 160 L160 200 L120 240 Z" fill="white" opacity="0.8"/>
  <path d="M80 280 L120 240 L160 280 L120 320 Z" fill="white" opacity="0.6"/>
</svg>
